<svg width="128" height="129" viewBox="0 0 128 129" fill="none" xmlns="http://www.w3.org/2000/svg">
<g filter="url(#filter0_d_73_256)">
<circle cx="64" cy="48.7012" r="40" fill="white"/>
</g>
<path d="M56 53.501C56 53.901 56.2 54.301 56.6 54.501L61.6 57.501C62.2 57.901 62.8 57.5011 62.8 56.9011V51.301C62.8 51.101 62.6 50.701 62.4 50.701L57.2 47.301C56.8 47.101 56 47.501 56 48.101V53.501Z" fill="#091E42"/>
<path d="M63.5998 51.1009V56.7009C63.5998 57.3009 64.1998 57.7009 64.7998 57.3009L69.7998 54.3009C70.1998 54.1009 70.3998 53.7009 70.3998 53.3009V48.1009C70.3998 47.5009 69.7998 47.1009 69.1998 47.5009L63.9998 50.3009C63.7998 50.5009 63.5998 50.7009 63.5998 51.1009Z" fill="#091E42"/>
<path d="M69.2 46.501L63.6 49.701C63.4 49.901 63 49.901 62.8 49.701L57.2 46.501C56.6 46.101 56.6 45.501 57.2 45.101L62.8 41.901C63 41.701 63.4 41.701 63.6 41.901L69.2 45.101C69.8 45.301 69.8 46.101 69.2 46.501Z" fill="#36B37E"/>
<path d="M44 64.7012C44 65.1012 44.2 65.5012 44.6 65.7012L49.6 68.7012C50.2 69.1012 50.8 68.7012 50.8 68.1012V62.5012C50.8 62.3012 50.6 61.9012 50.4 61.9012L45.2 58.9012C44.6 58.5012 44 58.9012 44 59.5012V64.7012V64.7012Z" fill="#091E42"/>
<path d="M51.5998 62.1014V67.7014C51.5998 68.3014 52.1998 68.7014 52.7998 68.3014L57.7998 65.3014C58.1998 65.1014 58.3998 64.7014 58.3998 64.3014V58.7014C58.3998 58.1014 57.7998 57.7014 57.1998 58.1014L51.9998 61.5014C51.7998 61.7014 51.5998 61.9014 51.5998 62.1014Z" fill="#091E42"/>
<path d="M57.2 57.501L51.6 60.701C51.4 60.901 51 60.901 50.8 60.701L45.2 57.501C44.6 57.101 44.6 56.501 45.2 56.101L50.8 52.901C51 52.701 51.4 52.701 51.6 52.901L57.2 56.101C57.6 56.501 57.6 57.301 57.2 57.501Z" fill="#36B37E"/>
<path d="M68.2001 64.7012C68.2001 65.1012 68.4001 65.5012 68.8001 65.7012L73.8001 68.7012C74.4001 69.1012 75.0001 68.7012 75.0001 68.1012V62.5012C75.0001 62.3012 74.8001 61.9012 74.6001 61.9012L69.4001 58.9012C68.8001 58.5012 68.2001 58.9012 68.2001 59.5012V64.7012V64.7012Z" fill="#091E42"/>
<path d="M75.5998 62.1014V67.7014C75.5998 68.3014 76.1998 68.7014 76.7998 68.3014L81.7998 65.3014C82.1998 65.1014 82.3998 64.7014 82.3998 64.3014V58.7014C82.3998 58.1014 81.7998 57.7014 81.1998 58.1014L75.9998 61.5014C75.7998 61.7014 75.5998 61.9014 75.5998 62.1014Z" fill="#091E42"/>
<path d="M81.2 57.501L75.6 60.701C75.4 60.901 75 60.901 74.8 60.701L69.2 57.501C68.6 57.101 68.6 56.501 69.2 56.101L74.8 52.901C75 52.701 75.4 52.701 75.6 52.901L81.2 56.101C81.8 56.501 81.8 57.301 81.2 57.501Z" fill="#36B37E"/>
<path d="M44 42.5016C44 42.9016 44.2 43.3016 44.6 43.5016L49.6 46.5016C50 46.7016 50.8 46.3016 50.8 45.7016V39.9016C50.8 39.7016 50.6 39.3016 50.4 39.3016L45.2 36.3016C44.6 36.1016 44 36.3016 44 37.1016V42.5016Z" fill="#091E42"/>
<path d="M51.5998 39.9009V45.5009C51.5998 46.1009 52.1998 46.5009 52.7998 46.1009L57.7998 43.1009C58.1998 42.9009 58.3998 42.5009 58.3998 42.1009V37.1009C58.3998 36.5009 57.7998 36.1009 57.1998 36.5009L51.9998 39.3009C51.7998 39.5009 51.5998 39.7009 51.5998 39.9009Z" fill="#091E42"/>
<path d="M57.2 35.3012L51.6 38.5012C51.4 38.7012 51 38.7012 50.8 38.5012L45.2 35.3012C44.6 34.9012 44.6 34.3012 45.2 33.9012L50.8 30.7012C51 30.7012 51.4 30.7012 51.6 30.9012L57.2 34.1012C57.6 34.3012 57.6 35.1012 57.2 35.3012Z" fill="#36B37E"/>
<path d="M68.2001 42.5016C68.2001 42.9016 68.4001 43.3016 68.8001 43.5016L73.8001 46.5016C74.4001 46.9016 75.0001 46.5016 75.0001 45.9016V39.9016C75.0001 39.7016 74.8001 39.3016 74.6001 39.3016L69.4001 36.3016C68.8001 35.9016 68.2001 36.3016 68.2001 36.9016V42.5016V42.5016Z" fill="#091E42"/>
<path d="M75.5998 39.9009V45.5009C75.5998 46.1009 76.1998 46.5009 76.7998 46.1009L81.7998 43.1009C82.1998 42.9009 82.3998 42.5009 82.3998 42.1009V37.1009C82.3998 36.5009 81.7998 36.1009 81.1998 36.5009L75.9998 39.3009C75.7998 39.5009 75.5998 39.7009 75.5998 39.9009Z" fill="#091E42"/>
<path d="M81.2 35.301L75.6 38.701C75.4 38.701 75.2 38.701 74.8 38.701L69.2 35.501C68.6 35.101 68.6 34.501 69.2 34.101L74.8 30.901C75 30.701 75.4 30.701 75.6 30.901L81.2 34.101C81.8 34.301 81.8 35.101 81.2 35.301Z" fill="#36B37E"/>
<defs>
<filter id="filter0_d_73_256" x="0" y="0.701172" width="128" height="128" filterUnits="userSpaceOnUse" color-interpolation-filters="sRGB">
<feFlood flood-opacity="0" result="BackgroundImageFix"/>
<feColorMatrix in="SourceAlpha" type="matrix" values="0 0 0 0 0 0 0 0 0 0 0 0 0 0 0 0 0 0 127 0" result="hardAlpha"/>
<feOffset dy="16"/>
<feGaussianBlur stdDeviation="12"/>
<feColorMatrix type="matrix" values="0 0 0 0 0.145573 0 0 0 0 0.185183 0 0 0 0 0.5375 0 0 0 0.08 0"/>
<feBlend mode="normal" in2="BackgroundImageFix" result="effect1_dropShadow_73_256"/>
<feBlend mode="normal" in="SourceGraphic" in2="effect1_dropShadow_73_256" result="shape"/>
</filter>
</defs>
</svg>

