<svg width="128" height="129" viewBox="0 0 128 129" fill="none" xmlns="http://www.w3.org/2000/svg">
<g filter="url(#filter0_d_73_255)">
<circle cx="64" cy="48.7012" r="40" fill="white"/>
</g>
<g clip-path="url(#clip0_73_255)">
<path d="M76.2706 47.5969H85.7044C85.8518 47.5969 85.9992 47.4497 85.9992 47.3026C85.3359 37.4431 78.1868 29.2758 68.753 27.2156C68.5319 27.142 68.3108 27.4364 68.5319 27.6571C72.954 32.5869 75.7546 39.6504 76.0494 47.3762C75.9757 47.5233 76.1232 47.5969 76.2706 47.5969Z" fill="#091E42"/>
<path d="M64.1841 26.7012C64.1104 26.7012 64.0367 26.7012 63.963 26.7012C63.8893 26.7012 63.8156 26.7012 63.7419 26.7012C58.0668 31.0423 54.5292 38.7681 54.1606 47.3032C54.1606 47.4503 54.308 47.5975 54.4555 47.5975H73.4705C73.6179 47.5975 73.7653 47.4503 73.7653 47.3032C73.4705 38.7681 69.8591 31.0423 64.1841 26.7012Z" fill="#36B37E"/>
<path d="M54.4555 49.8047C54.308 49.8047 54.1606 49.9518 54.1606 50.099C54.5292 58.7077 58.0668 66.3599 63.7419 70.701C63.8156 70.701 63.8893 70.701 63.963 70.701C64.0367 70.701 64.1104 70.701 64.1841 70.701C69.8591 66.3599 73.3968 58.6341 73.7653 50.099C73.7653 49.9518 73.6179 49.8047 73.4705 49.8047H54.4555Z" fill="#091E42"/>
<path d="M75.9758 50.0254C75.681 57.7512 72.954 64.8147 68.5319 69.7445C68.3845 69.9652 68.5319 70.2595 68.753 70.186C78.1868 68.1258 85.4096 59.9585 85.9992 50.099C85.9992 49.9518 85.8518 49.8047 85.7044 49.8047H76.2706C76.1232 49.8047 75.9758 49.9518 75.9758 50.0254Z" fill="#36B37E"/>
<path d="M51.7283 49.8047H42.2945C42.1471 49.8047 41.9997 49.9518 41.9997 50.099C42.5893 59.9585 49.8121 68.1258 59.2459 70.186C59.467 70.2595 59.6881 69.9652 59.467 69.7445C54.9712 64.8147 52.2442 57.7512 51.9494 50.0254C52.0231 49.9518 51.8757 49.8047 51.7283 49.8047Z" fill="#36B37E"/>
<path d="M52.0231 47.3762C52.3179 39.6504 55.0449 32.5869 59.467 27.6571C59.6144 27.4364 59.467 27.142 59.2459 27.2156C49.8121 29.2758 42.5893 37.4431 41.9997 47.3026C41.9997 47.4497 42.1471 47.5969 42.2945 47.5969H51.7283C51.8757 47.5969 52.0231 47.5233 52.0231 47.3762Z" fill="#091E42"/>
</g>
<defs>
<filter id="filter0_d_73_255" x="0" y="0.701172" width="128" height="128" filterUnits="userSpaceOnUse" color-interpolation-filters="sRGB">
<feFlood flood-opacity="0" result="BackgroundImageFix"/>
<feColorMatrix in="SourceAlpha" type="matrix" values="0 0 0 0 0 0 0 0 0 0 0 0 0 0 0 0 0 0 127 0" result="hardAlpha"/>
<feOffset dy="16"/>
<feGaussianBlur stdDeviation="12"/>
<feColorMatrix type="matrix" values="0 0 0 0 0.145573 0 0 0 0 0.185183 0 0 0 0 0.5375 0 0 0 0.08 0"/>
<feBlend mode="normal" in2="BackgroundImageFix" result="effect1_dropShadow_73_255"/>
<feBlend mode="normal" in="SourceGraphic" in2="effect1_dropShadow_73_255" result="shape"/>
</filter>
<clipPath id="clip0_73_255">
<rect width="44" height="44" fill="white" transform="translate(41.9997 26.7012)"/>
</clipPath>
</defs>
</svg>
